<?xml version="1.0" encoding="iso-8859-1"?>
<!-- Generator: Adobe Illustrator 19.0.0, SVG Export Plug-In . SVG Version: 6.00 Build 0)  -->
<svg version="1.1" id="Layer_1" xmlns="http://www.w3.org/2000/svg" xmlns:xlink="http://www.w3.org/1999/xlink" x="0px" y="0px"
	 viewBox="0 0 491.52 491.52" style="enable-background:new 0 0 491.52 491.52;" xml:space="preserve">
<g>
	<g>
		<path d="M0,51.2v163.84h491.52V51.2H0z M471.04,194.56H20.48V71.68h450.56V194.56z"/>
	</g>
</g>
<g>
	<g>
		<polygon points="132.755,121.51 122.515,103.77 102.4,115.383 102.4,92.16 81.92,92.16 81.92,115.381 61.81,103.77 51.57,121.51 
			71.679,133.12 51.57,144.73 61.81,162.47 81.92,150.859 81.92,174.08 102.4,174.08 102.4,150.857 122.515,162.47 132.755,144.73 
			112.646,133.12 		"/>
	</g>
</g>
<g>
	<g>
		<polygon points="235.155,121.51 224.915,103.77 204.8,115.383 204.8,92.16 184.32,92.16 184.32,115.381 164.21,103.77 
			153.97,121.51 174.079,133.12 153.97,144.73 164.21,162.47 184.32,150.859 184.32,174.08 204.8,174.08 204.8,150.857 
			224.915,162.47 235.155,144.73 215.046,133.12 		"/>
	</g>
</g>
<g>
	<g>
		<polygon points="337.555,121.51 327.315,103.77 307.2,115.383 307.2,92.16 286.72,92.16 286.72,115.381 266.61,103.77 
			256.37,121.51 276.479,133.12 256.37,144.73 266.61,162.47 286.72,150.859 286.72,174.08 307.2,174.08 307.2,150.857 
			327.315,162.47 337.555,144.73 317.446,133.12 		"/>
	</g>
</g>
<g>
	<g>
		<polygon points="439.955,121.51 429.715,103.77 409.6,115.383 409.6,92.16 389.12,92.16 389.12,115.381 369.01,103.77 
			358.77,121.51 378.879,133.12 358.77,144.73 369.01,162.47 389.12,150.859 389.12,174.08 409.6,174.08 409.6,150.857 
			429.715,162.47 439.955,144.73 419.846,133.12 		"/>
	</g>
</g>
<g>
	<g>
		<path d="M403.6,317.44H209.663C196.971,281.704,162.912,256,122.88,256c-50.815,0-92.16,41.34-92.16,92.16
			c0,50.82,41.345,92.16,92.16,92.16c36.093,0,67.32-20.905,82.436-51.2h77.164l29.84,29.84l35.84-35.84l16.24,16.24h39.2
			l40.96-40.96L403.6,317.44z M122.88,419.84c-39.525,0-71.68-32.16-71.68-71.68c0-39.52,32.155-71.68,71.68-71.68
			s71.68,32.16,71.68,71.68C194.56,387.68,162.405,419.84,122.88,419.84z M395.12,378.88h-22.24l-24.72-24.72L312.32,390
			l-21.36-21.36h-78.293c1.505-6.598,2.373-13.433,2.373-20.48c0-3.464-0.229-6.874-0.604-10.24H395.12l20.48,20.48L395.12,378.88z"
			/>
	</g>
</g>
<g>
	<g>
		<path d="M92.16,317.44c-16.94,0-30.72,13.78-30.72,30.72c0,16.94,13.78,30.72,30.72,30.72s30.72-13.78,30.72-30.72
			C122.88,331.22,109.1,317.44,92.16,317.44z M92.16,358.4c-5.645,0-10.24-4.59-10.24-10.24c0-5.65,4.595-10.24,10.24-10.24
			c5.645,0,10.24,4.59,10.24,10.24C102.4,353.81,97.805,358.4,92.16,358.4z"/>
	</g>
</g>
<g>
</g>
<g>
</g>
<g>
</g>
<g>
</g>
<g>
</g>
<g>
</g>
<g>
</g>
<g>
</g>
<g>
</g>
<g>
</g>
<g>
</g>
<g>
</g>
<g>
</g>
<g>
</g>
<g>
</g>
</svg>
