<?xml version="1.0" encoding="UTF-8" standalone="no" ?>
<!DOCTYPE svg PUBLIC "-//W3C//DTD SVG 1.1//EN" "http://www.w3.org/Graphics/SVG/1.1/DTD/svg11.dtd">
<svg xmlns="http://www.w3.org/2000/svg" xmlns:xlink="http://www.w3.org/1999/xlink" version="1.1" width="80" height="80.00494" viewBox="184.385 279.499999279375 80.995 81.00000144125" xml:space="preserve">
<desc>Created with Fabric.js 4.6.0</desc>
<defs>
</defs>
<g transform="matrix(1 0 0 1 244.88 320)" id="vshqpEq-xBwPQ1E--7RHi"  >
<path style="stroke: none; stroke-width: 1; stroke-dasharray: none; stroke-linecap: butt; stroke-dashoffset: 0; stroke-linejoin: miter; stroke-miterlimit: 4; fill: rgb(123,135,211); fill-rule: nonzero; opacity: 1;" vector-effect="non-scaling-stroke"  transform=" translate(-189.99, -170)" d="M 169.99 130 L 209.99 130 L 209.99 210 L 169.99 210 L 169.99 130 Z" stroke-linecap="round" />
</g>
<g transform="matrix(1 0 0 1 224.88 340)" id="fh63XGAiKxihb7jCx83RE"  >
<path style="stroke: none; stroke-width: 1; stroke-dasharray: none; stroke-linecap: butt; stroke-dashoffset: 0; stroke-linejoin: miter; stroke-miterlimit: 4; fill: rgb(54,72,172); fill-rule: nonzero; opacity: 1;" vector-effect="non-scaling-stroke"  transform=" translate(-170, -190)" d="M 209.47 176.48 L 209.18 178.05 L 208.83 179.6 L 208.42 181.13 L 207.95 182.63 L 207.43 184.11 L 206.85 185.56 L 206.21 186.98 L 205.53 188.37 L 204.79 189.73 L 204 191.06 L 203.16 192.35 L 202.27 193.61 L 201.34 194.84 L 200.36 196.02 L 199.34 197.17 L 198.27 198.27 L 197.17 199.34 L 196.02 200.36 L 194.83 201.34 L 193.61 202.27 L 192.35 203.16 L 191.06 204 L 189.73 204.79 L 188.37 205.53 L 186.98 206.22 L 185.56 206.85 L 184.11 207.43 L 182.63 207.95 L 181.13 208.42 L 179.6 208.83 L 178.05 209.18 L 176.48 209.47 L 174.89 209.7 L 173.27 209.86 L 171.64 209.96 L 169.99 210 L 168.35 209.96 L 166.72 209.86 L 165.1 209.7 L 163.51 209.47 L 161.94 209.18 L 160.39 208.83 L 158.86 208.42 L 157.36 207.95 L 155.88 207.43 L 154.43 206.85 L 153.01 206.22 L 151.62 205.53 L 150.26 204.79 L 148.93 204 L 147.64 203.16 L 146.38 202.27 L 145.15 201.34 L 143.97 200.36 L 142.82 199.34 L 141.72 198.27 L 140.65 197.17 L 139.63 196.02 L 138.65 194.84 L 137.72 193.61 L 136.83 192.35 L 135.99 191.06 L 135.2 189.73 L 134.46 188.37 L 133.77 186.98 L 133.14 185.56 L 132.56 184.11 L 132.04 182.63 L 131.57 181.13 L 131.16 179.6 L 130.81 178.05 L 130.52 176.48 L 130.29 174.89 L 130.13 173.27 L 130.03 171.64 L 130 170 L 209.99 170 L 209.96 171.64 L 209.86 173.27 L 209.7 174.89 L 209.7 174.89 L 209.47 176.48 Z" stroke-linecap="round" />
</g>
</svg>