<svg xmlns="http://www.w3.org/2000/svg" viewBox="0 0 512 512">
    <defs>
        <linearGradient id="a" x1="61.52" y1="419.18" x2="450.48" y2="92.82" gradientUnits="userSpaceOnUse">
            <stop offset="0" stop-color="#e65100"/>
            <stop offset=".09" stop-color="#dd4e00"/>
            <stop offset=".24" stop-color="#c54500"/>
            <stop offset=".43" stop-color="#9d3700"/>
            <stop offset=".65" stop-color="#662400"/>
            <stop offset=".9" stop-color="#200b00"/>
            <stop offset="1"/>
        </linearGradient>
    </defs>
    <path d="M460.32 109.33c-39.79-22.8-89.32 6-89.32 51.88v91.12c0 56.86-45.72 112-102.16 118.16A115.11 115.11 0 0 1 141 259.2c-.52-19.37 12.18-37.59 31.23-41a38.35 38.35 0 0 1 45.37 36.47c.54 16 8.8 31.52 23.84 37 27.32 10 52.85-9.8 52.85-35.74V29.14a25.74 25.74 0 0 0-12.9-22.32 50.84 50.84 0 0 0-50.86 0L51.68 109.33A51.47 51.47 0 0 0 26 153.74v204.52a51.47 51.47 0 0 0 25.68 44.41l178.89 102.51a50.84 50.84 0 0 0 50.86 0l178.89-102.51A51.47 51.47 0 0 0 486 358.26V153.74a51.47 51.47 0 0 0-25.68-44.41z" fill="url(#a)"/>
    <path d="M460.32 109.33c-39.79-22.8-89.32 6-89.32 51.88v91.12c0 194.46-85.57 250.34-89.57 252.85l178.89-102.51A51.47 51.47 0 0 0 486 358.26V153.74a51.47 51.47 0 0 0-25.68-44.41zM294.33 256V29.14a25.74 25.74 0 0 0-12.9-22.32 50.82 50.82 0 0 0-50.86 0L51.7 109.32c2-.78 165.94-65 165.94 145.38.54 16 8.8 31.52 23.84 37 27.32 10.08 52.85-9.76 52.85-35.7z" fill="#e65100"/>
</svg>